<svg xmlns="http://www.w3.org/2000/svg">
 <!-- ViewBox and Polygon taken from "Star.svg" -->
  <symbol id="icon-star" viewBox="0 0 95 95">
    <polygon points="47.5 0 62.18 31.27 95 36.29 71.25 60.63 76.86 95 47.5 78.77 18.14 95 23.75 60.63 0 36.29 32.82 31.27 47.5 0"/>
  </symbol>

  <!-- ViewBox and Polygon taken from "Flower.svg" -->
  <symbol id="icon-flower" viewBox="0 0 95 95">
    <path class="cls-1" d="M96.9,36.75A14.87,14.87,0,0,0,85.62,26.54a14.39,14.39,0,0,0-5.57-14A15.44,15.44,0,0,0,63.68,11.2a15.27,15.27,0,0,0-27-1,15.47,15.47,0,0,0-15.36,1.3A14.43,14.43,0,0,0,15.16,25.2,14.93,14.93,0,0,0,3.48,35a14.29,14.29,0,0,0,3.3,14.62A14.3,14.3,0,0,0,3.19,64.15a14.89,14.89,0,0,0,11.48,10A14.41,14.41,0,0,0,20.52,88a15.42,15.42,0,0,0,15.34,1.59,15.28,15.28,0,0,0,26.49.51,15.42,15.42,0,0,0,15.38-1,14.43,14.43,0,0,0,6.41-13.61A15,15,0,0,0,96,65.92a14.31,14.31,0,0,0-3-14.69A14.31,14.31,0,0,0,96.9,36.75" transform="translate(-2.5 -2.5)"/>
  </symbol>

  <!-- ViewBox and Polygon taken from "8 Point Star.svg" -->
  <symbol id="icon-8pt-star" viewBox="0 0 95 95">
    <path class="cls-1" d="M83.59,63.91,97.5,50,83.59,36.09V16.41H63.91L50,2.5,36.09,16.41H16.41V36.09L2.5,50,16.41,63.91V83.59H36.09L50,97.5,63.91,83.59H83.59Z" transform="translate(-2.5 -2.5)"/>
  </symbol>

  <symbol id="waste_management_system" viewBox="0 -50 510 500">
		<path d="M184.889 -48.2842c-4.87598 0.0302734 -8.83398 4.01172 -8.83398 8.88867c0 2.01953 1.1543 4.82324 2.57617 6.25781l9.95605 9.95508h-130.987c-0.143555 -0.000976562 -0.378906 -0.00292969 -0.522461 -0.00292969c-13.5996 0 -30.1543 9.55859 -36.9531 21.3369
c-3.36914 5.50098 -6.10352 15.2021 -6.10352 21.6533s2.73438 16.1514 6.10352 21.6533l78.2227 135.111c1.42383 2.45117 4.87988 4.44141 7.71582 4.44141c4.9248 0 8.92188 -3.99707 8.92188 -8.92188c0 -1.32617 -0.541016 -3.33301 -1.20703 -4.47949
l-78.2217 -135.111c-2.00781 -3.21582 -3.6377 -8.90234 -3.6377 -12.6934s1.62988 -9.47754 3.6377 -12.6934c4.02539 -6.87109 13.7559 -12.4463 21.7188 -12.4463c0.0898438 0 0.235352 0 0.325195 0.00195312h130.987l-9.95605 9.95508
c-1.43848 1.43945 -2.60645 4.25879 -2.60645 6.29395c0 4.91211 3.9873 8.89941 8.90039 8.89941c2.03418 0 4.85449 -1.16797 6.29297 -2.60645l25.1729 -25.1025c1.44238 -1.4375 2.6123 -4.25684 2.6123 -6.29297s-1.16992 -4.85547 -2.6123 -6.29395l-25.1016 -25.1729
c-1.43945 -1.45215 -4.26855 -2.63184 -6.31348 -2.63184c-0.0244141 0 -0.0625 0 -0.0869141 0.000976562zM455.111 -23.8223h-151.467c-4.90723 0 -8.88867 3.98242 -8.88867 8.88867c0 4.90723 3.98145 8.88867 8.88867 8.88867h151.467h0.112305
c14.1309 0 25.5996 11.4688 25.5996 25.6006c0 3.88379 -1.61133 9.74609 -3.59668 13.084l-38.6133 66.5605l-4.19531 -14.2227c-1.04102 -3.51855 -4.86426 -6.37402 -8.5332 -6.37402c-4.91211 0 -8.89941 3.98633 -8.89941 8.89844
c0 0.711914 0.164062 1.84277 0.366211 2.52441l10.168 34.0625c1.04395 3.50781 4.86133 6.35449 8.52051 6.35449c0.725586 0 1.87891 -0.170898 2.57324 -0.380859l34.0625 -10.1689c3.51855 -1.04102 6.37402 -4.86426 6.37402 -8.5332
c0 -4.91211 -3.98633 -8.89941 -8.89844 -8.89941c-0.711914 0 -1.84277 0.164062 -2.52441 0.366211l-12.8711 3.83984l37.9023 -65.3516c3.23047 -5.57129 5.85254 -15.3193 5.85254 -21.7598c0 -23.9443 -19.4336 -43.3779 -43.3779 -43.3779h-0.0214844z
M286.578 59.4492h-55.2539c-0.125977 -0.00292969 -0.332031 -0.00488281 -0.458008 -0.00488281c-11.8965 0 -22.9043 9.55957 -24.5732 21.3379l-13.084 112.711h-0.569336c-4.90625 0 -8.88867 3.98242 -8.88867 8.88867c0 4.90723 3.98242 8.88965 8.88867 8.88965
h91.2363l-72.5342 37.6172c-2.87695 1.30762 -5.21289 4.93262 -5.21289 8.09375c0 4.90625 3.98242 8.88867 8.88965 8.88867c1.3584 0 3.40723 -0.567383 4.57227 -1.2666l26.667 -14.2227c4.76855 7.36719 15.7607 13.3467 24.5361 13.3467
c16.1328 0 29.2266 -13.0938 29.2266 -29.2266c0 -3.19531 -0.989258 -8.1875 -2.20703 -11.1416l26.0977 -13.6533l1.06641 -0.640625c1.86035 -1.26074 3.58008 -4.09668 3.83984 -6.3291c0.0283203 -0.263672 0.0507812 -0.693359 0.0507812 -0.959961
c0 -0.265625 -0.0224609 -0.695312 -0.0507812 -0.959961c0.0351562 -0.292969 0.0634766 -0.770508 0.0634766 -1.06641c0 -0.294922 -0.0283203 -0.773438 -0.0634766 -1.06641l-17.3506 -118.4c-1.92676 -11.502 -12.9551 -20.8369 -24.6172 -20.8369
c-0.0751953 0 -0.197266 0.000976562 -0.271484 0.00195312zM211.129 193.493l12.8711 -110.507c0.640625 -3.14062 3.76172 -5.69043 6.96777 -5.69043c0.0390625 0 0.103516 0.000976562 0.143555 0.00195312h55.4668
c0.0478516 -0.000976562 0.125 -0.00195312 0.173828 -0.00195312c3.13965 0 6.24707 2.48535 6.93652 5.54883l16.0713 110.648h-98.6309zM262.187 242.702l19.6982 -10.3115c0.181641 0.743164 0.330078 1.96582 0.330078 2.73047
c0 6.31934 -5.12891 11.4482 -11.4492 11.4482c-2.84863 0 -6.69238 -1.73242 -8.5791 -3.86719zM274.702 85.333h-0.995117c-4.34863 0.499023 -7.87695 4.45508 -7.87695 8.83105c0 0.272461 0.0244141 0.711914 0.0546875 0.982422l9.17285 81.4932
c0.702148 4.07324 4.62695 7.37891 8.75977 7.37891c4.90723 0 8.88867 -3.98145 8.88867 -8.88867c0 -0.132812 -0.00585938 -0.348633 -0.0126953 -0.481445l-9.17383 -81.4932c-0.521484 -4.31445 -4.47168 -7.81836 -8.81738 -7.82227zM244.409 85.333
c-4.37793 0.0078125 -8.32812 3.54395 -8.81836 7.89355l-9.17285 81.4932c-0.0078125 0.132812 -0.0136719 0.348633 -0.0136719 0.481445c0 4.90625 3.98242 8.88867 8.88965 8.88867c4.13281 0 8.05762 -3.30566 8.75977 -7.37891l9.17285 -81.4932
c0.0341797 -0.289062 0.0625 -0.760742 0.0625 -1.05273c0 -4.37988 -3.53223 -8.33691 -7.88477 -8.83203h-0.995117zM394.667 186.667h-0.00292969c-2.81738 0 -6.25684 1.97461 -7.67773 4.4082l-108.8 186.312c-4.13672 6.99902 -14.0918 12.6797 -22.2217 12.6797
c-8.13086 0 -18.0859 -5.68066 -22.2227 -12.6797l-68.7646 -114.916l10.3115 1.49414c0.341797 0.0478516 0.899414 0.0869141 1.24414 0.0869141c4.91602 0 8.90527 -3.98926 8.90527 -8.90527c0 -4.27051 -3.43164 -8.2207 -7.66113 -8.81738l-35.1992 -5.04883
c-0.334961 -0.046875 -0.880859 -0.0839844 -1.21875 -0.0839844c-4.28516 0 -8.23145 3.44629 -8.80859 7.69238l-5.04883 35.2002c-0.0136719 0.18457 -0.0253906 0.485352 -0.0253906 0.669922c0 4.90723 3.98242 8.88965 8.88965 8.88965
c3.98633 0 7.88477 -3.16797 8.7002 -7.07031l2.63184 -18.2764l71.1104 118.188c6.97266 11.8086 23.7617 21.3936 37.4756 21.3936s30.5029 -9.58496 37.4756 -21.3936l108.587 -186.454c0.668945 -1.14551 1.21191 -3.15234 1.21191 -4.47949
c0 -4.90723 -3.98242 -8.88867 -8.88965 -8.88867h-0.00195312z" />

  </symbol>
  <symbol id="cctv_cameras" viewBox="0 -50 510 500">
		<path d="M24.8887 -1.77734c-4.90625 0 -8.88867 3.98145 -8.88867 8.88867v263.111c0 4.90625 3.98242 8.88867 8.88867 8.88867c4.90723 0 8.88867 -3.98242 8.88867 -8.88867v-90.9512h34.6318h0.00390625c4.75293 0 8.73242 -3.85547 8.88477 -8.60449v-38.6133
l74.0264 -49.7783l45.5117 75.3066l-112.071 74.4531c-2.19727 1.45605 -3.98047 4.77539 -3.98047 7.41113c0 1.44629 0.635742 3.60547 1.41992 4.82031l89.5293 137.813c1.45117 2.2334 4.79004 4.0459 7.45312 4.0459c1.48242 0 3.68652 -0.666016 4.91992 -1.48633
l297.387 -197.831c2.19238 -1.45508 3.97168 -4.77246 3.97168 -7.4043c0 -2.81348 -1.9707 -6.25 -4.39844 -7.6709l-18.4883 -10.9512l30.2217 -21.333c2.05371 -1.46777 3.7207 -4.70801 3.7207 -7.23145c0 -1.45996 -0.647461 -3.63574 -1.44531 -4.85742
l-50.6309 -78.2227c-1.44824 -2.25098 -4.79785 -4.0791 -7.47461 -4.0791c-1.5 0 -3.72656 0.680664 -4.96973 1.51953l-76.4443 50.8438l-31.2178 -18.4883c-1.19727 -0.751953 -3.31543 -1.3623 -4.72852 -1.3623c-1.41406 0 -3.53223 0.610352 -4.72949 1.3623
l-103.182 68.835l-49.7783 -82.6309c-1.43359 -2.35254 -4.83398 -4.2627 -7.58984 -4.2627c-1.48438 0 -3.69043 0.666992 -4.92578 1.48926l-72.1064 48v-28.4443c0 -4.90625 -3.98242 -8.88867 -8.88867 -8.88867h-34.6318v-65.9199
c0 -4.90723 -3.98145 -8.88867 -8.88867 -8.88867zM372.551 107.449l61.9385 -41.458l41.1729 64l-29.7246 21.333zM34.0625 90.5957h25.457v71.1113h-25.457v-71.1113zM101.902 241.777l218.098 -144.711l139.876 82.7734l-278.188 184.889z" />
    
  </symbol>

  <symbol id="landscaped_garden" viewBox="0 -50 510 500">
		<path d="M490.667 -48h-455.111c-4.90723 0 -8.88867 3.98242 -8.88867 8.88867c0 4.90723 3.98145 8.88867 8.88867 8.88867h108.657c-0.0244141 0.245117 -0.0449219 0.643555 -0.0449219 0.889648s0.0205078 0.643555 0.0449219 0.888672v45.8662
c-20.835 1.35156 -103.751 14.2227 -129.92 132.48c-0.115234 0.522461 -0.208008 1.38086 -0.208008 1.91504c0 4.90723 3.98145 8.88965 8.88867 8.88965c0.535156 0 1.39258 -0.09375 1.91504 -0.208984c71.1113 -15.7158 103.965 -51.7695 119.324 -82.6318v133.263
c-21.5654 2.60742 -48.2939 19.7471 -59.6621 38.2578c-6.32812 10.3115 -10.4531 33.4932 -13.8662 70.6133c-1.63574 17.7773 -2.63086 25.8135 -3.69824 34.2754c-1.06641 8.46191 -2.13281 16.7109 -3.76855 34.6309
c-0.0185547 0.21582 -0.0341797 0.566406 -0.0341797 0.783203c0 4.90625 3.98145 8.88867 8.88867 8.88867c1.19531 0 3.02637 -0.446289 4.08789 -0.996094l9.24414 -4.97754c3.37402 10.9492 13.25 25.7949 22.0449 33.1377
c1.35645 1.09082 3.87109 1.97559 5.61133 1.97559c0.416992 0 1.08887 -0.0566406 1.49902 -0.126953c8.82129 -1.73926 22.2979 -6.80469 30.0801 -11.3066c15.4814 7.07129 41.7646 14.4307 58.667 16.4268c0.124023 0.00683594 0.326172 0.0117188 0.450195 0.0117188
c2.61035 0 5.91309 -1.75781 7.37207 -3.92285c5.02539 -8.15234 10.25 -22.4561 11.6621 -31.9287c3.57422 0.751953 9.43555 1.48438 13.085 1.63574c0.0917969 0.00292969 0.241211 0.00585938 0.333008 0.00585938c4.90625 0 8.88867 -3.98242 8.88867 -8.88867
c0 -0.257812 -0.0214844 -0.674805 -0.0488281 -0.930664l-11.6621 -113.066c0.0302734 -0.274414 0.0546875 -0.720703 0.0546875 -0.996094s-0.0244141 -0.72168 -0.0546875 -0.995117v-1.84863c-0.120117 -1.05469 -0.661133 -2.64746 -1.20898 -3.55566
c-9.88477 -35.5557 -33.3506 -55.1826 -69.9736 -57.6719v-69.8311c16.0713 30.0801 49.209 64 117.547 79.1475c0.522461 0.115234 1.38086 0.208008 1.91602 0.208008c4.90625 0 8.88867 -3.98145 8.88867 -8.88867c0 -0.535156 -0.09375 -1.39258 -0.208984 -1.91504
c-25.8848 -114.987 -105.458 -130.205 -128.569 -132.125v-105.6c0.0253906 -0.245117 0.0449219 -0.642578 0.0449219 -0.888672s-0.0195312 -0.644531 -0.0449219 -0.889648h209.778v33.1387c-9.47363 1.02051 -23.9365 5.57617 -32.2842 10.168
c-18.2764 10.0273 -42.667 31.8584 -52.7646 79.0762c-0.115234 0.522461 -0.208984 1.38086 -0.208984 1.91504c0 4.90723 3.98242 8.88965 8.88867 8.88965c0.535156 0 1.39355 -0.09375 1.91602 -0.208984c40.8887 -9.03125 62.791 -28.4443 74.3818 -45.1562v71.752
c-19.3955 2.21289 -43.3838 17.5371 -53.5469 34.2041c-5.12012 9.10254 -9.10156 29.4395 -12.0889 62.1514c-1.42188 15.5732 -2.27539 22.542 -3.27051 29.8662c-0.996094 7.32422 -1.84961 14.2227 -3.27148 30.2227
c-0.0185547 0.214844 -0.0341797 0.56543 -0.0341797 0.782227c0 4.90625 3.98145 8.88867 8.88867 8.88867c1.19531 0 3.02637 -0.446289 4.08789 -0.996094c0.923828 -0.49707 5.90234 -3.05762 13.3691 -7.11035c1.98438 8.16211 6.60352 20.9053 10.3105 28.4443
c1.3623 2.68945 4.91504 4.87305 7.93066 4.87305c0.384766 0 1.00488 -0.0488281 1.38477 -0.108398c7.5791 -1.47852 19.1748 -5.7793 25.8848 -9.60059c10.8516 6.7002 29.9658 13.0713 42.667 14.2227c0.199219 0.0166016 0.524414 0.0302734 0.724609 0.0302734
c2.10254 0 4.96289 -1.25586 6.38574 -2.80371c6.21289 -7.06836 12.7754 -20.2891 14.6494 -29.5117c4.28418 1.14258 11.3564 2.22559 15.7861 2.41797c0.192383 0.015625 0.503906 0.0283203 0.696289 0.0283203c2.1084 0 4.98242 -1.25488 6.41504 -2.80176
c1.32812 -1.41504 2.40625 -4.14062 2.40625 -6.08203c0 -0.28418 -0.0263672 -0.746094 -0.0595703 -1.02832l-10.7373 -98.418c0.0273438 -0.264648 0.0498047 -0.694336 0.0498047 -0.959961s-0.0224609 -0.696289 -0.0498047 -0.959961v-1.49316
c-0.0976562 -1.00391 -0.576172 -2.5332 -1.06738 -3.41406c-8.5332 -30.791 -28.4443 -47.7861 -59.2354 -50.7734v-45.0127c11.0938 17.4932 33.0674 38.3994 76.2314 48c0.487305 0.0996094 1.28613 0.180664 1.7832 0.180664
c4.90625 0 8.88867 -3.98242 8.88867 -8.88965c0 -0.546875 -0.0976562 -1.42383 -0.21875 -1.95801c-10.667 -47.2178 -34.7021 -69.0488 -53.0488 -79.0752c-8.79395 -4.85059 -24.0547 -9.46973 -34.0625 -10.3115v-62.5781h101.334
c4.90625 0 8.88867 -3.98145 8.88867 -8.88867c0 -4.90625 -3.98242 -8.88867 -8.88867 -8.88867zM307.84 81.4219c14.8623 -45.6533 44.7295 -56.8887 60.0889 -60.0889c-2.84473 15.3604 -14.3643 45.2266 -60.0889 60.0889zM34.9863 139.591
c12.2314 -43.5195 34.2764 -74.2393 65.6357 -91.3066c9.93457 -5.51562 27.1377 -11.2178 38.4004 -12.7285c-2.70215 22.542 -18.1338 79.7158 -104.036 104.035zM454.542 111.146c-45.6533 -14.8623 -56.8887 -44.7285 -60.0889 -60.0889
c15.6445 2.77344 45.5117 14.2939 60.6582 59.9473zM269.014 199.111c-86.1865 -24.249 -101.404 -81.5645 -104.036 -103.965c22.4004 2.63086 79.6445 17.8486 104.036 103.965zM318.791 270.578c0.569336 -5.2627 1.06641 -9.17383 1.56445 -13.085
c0.924805 -7.11133 1.84863 -14.6484 3.34277 -30.5068c3.69727 -40.3906 8.17773 -51.9814 9.88379 -55.04c8.83789 -13.8643 29.3545 -25.2373 45.7959 -25.3867c29.0127 0 45.2979 12.0889 52.4092 39.04c-14.6494 24.6045 -66.6318 58.2402 -102.685 79.0762
l-1.56445 0.923828zM389.902 247.538c13.4072 -9.00879 33.542 -25.6064 44.9424 -37.0488l7.11035 65.5645c-16.126 -4.75781 -39.5732 -17.5 -52.3369 -28.4443zM82.4893 374.045c0.782227 -7.11133 1.42188 -12.5156 2.06152 -17.4941
c1.06738 -8.24902 2.13379 -16.7822 3.76953 -34.8438c4.12402 -46.5068 9.52832 -60.0186 11.2354 -63.6445c10.3086 -16.3037 34.3291 -29.6523 53.6172 -29.7959c34.1338 0 53.1914 14.2227 61.4404 46.2227c-18.2041 32 -91.3779 77.084 -132.124 99.5557z
M341.974 277.831c9.6709 -5.61816 20.835 -12.373 32.2842 -19.8398c5.35156 4.62207 14.4629 11.5664 20.3379 15.502c-11.3369 9.79199 -31.7891 22.3447 -45.6533 28.0176c-2.71777 -6.30176 -5.83984 -16.9102 -6.96875 -23.6797zM388.622 300.302
c6.1416 -4.18262 15.6992 -11.5098 21.333 -16.3555l0.853516 -0.852539c2.41797 1.2793 4.97852 2.48828 7.53809 3.69727c-0.72168 6.17383 -4.29004 15.2529 -7.96484 20.2666c-6.26367 -0.97168 -15.9805 -3.99805 -21.6885 -6.75586h-0.0712891zM163.556 345.173
c16.4199 -10.9004 40.8857 -31.2256 54.6133 -45.3682l7.96484 79.7861c-25.3867 -5.26172 -51.2002 -24.6748 -62.5781 -34.418zM102.115 383.573c12.8711 -7.11133 29.2266 -17.0664 46.0801 -28.0889c6.65234 5.78613 18.0254 14.4189 25.3867 19.2715
c-11.5908 9.81348 -37.7598 29.4395 -57.6709 34.4883c-6.39844 -5.70703 -12.7061 -17.208 -14.0801 -25.6709h0.28418zM163.413 404.906c7.06934 -4.85449 18.0605 -13.3613 24.5332 -18.9863c0.449219 -0.402344 1.08594 -1.13574 1.42285 -1.63574
c4.2959 2.33594 11.4639 5.71289 16 7.53809c-0.842773 6.64941 -4.02832 16.876 -7.11133 22.8262c-9.98828 -1.65918 -25.7266 -6.05566 -35.1289 -9.8125z" />
  </symbol>
   <symbol id="gate" viewBox="0 -50 510 500">
		<path d="M471.111 -48h-462.223c-4.90625 0 -8.88867 3.98242 -8.88867 8.88867v419.556v0.0712891c0 4.90625 3.98242 8.88867 8.88867 8.88867v0h34.9873c4.90625 0 8.88867 -3.98242 8.88867 -8.88867v-49.0664c19.7822 1.08398 47.5625 12.9668 62.0088 26.5244
l17.9912 17.5645c19.8398 19.4131 28.0176 27.4482 37.7598 35.5557c14.9092 11.5244 42.3037 20.8779 61.1475 20.8779c1.31836 0 3.45605 -0.0507812 4.77246 -0.114258c21.333 0 45.9375 -2.34668 66.916 -19.8398c12.0176 -10.0264 24.3193 -21.333 57.8838 -54.0439
c15.4922 -14.0234 45.0244 -25.5557 65.9199 -25.7422v48.2842c0 4.90625 3.98242 8.88867 8.88965 8.88867h35.0576c4.90625 0 8.88867 -3.98242 8.88867 -8.88867v-419.556v-0.0712891c0 -4.90625 -3.98242 -8.88867 -8.88867 -8.88867v0zM445.014 -30.2227h17.209v401.85
h-17.209v-401.85zM374.969 -30.2227h52.2666v35.5557h-52.124zM304.925 -30.2227h52.2666v35.5557h-52.2666v-35.5557zM248.889 -30.2227h38.2578v35.5557h-38.2578v-35.5557zM185.885 -30.2227h45.2266v35.5557h-45.2266v-35.5557zM122.88 -30.2227h45.2266v35.5557
h-45.2979zM52.8359 -30.2227h52.0527v35.5557h-52.124zM17.8486 -30.2227h17.1377v352.641v0.426758v0.426758v48.3555h-17.209zM375.111 23.1826h52.2666v234.026h-52.2666v-234.026zM305.066 23.1826h52.2666v234.026h-52.4082zM249.031 23.1826h38.2578v234.026h-38.4004
v-50.9863h19.1289c4.90723 0 8.88867 -3.98242 8.88867 -8.88965v-91.5195c0 -4.90723 -3.98145 -8.88867 -8.88867 -8.88867h-19.1289zM186.026 23.1826h45.2266v73.7422h-26.2393c-4.90723 0 -8.88965 3.98145 -8.88965 8.88867v91.5908
c0.0390625 4.86719 4.02148 8.81836 8.88867 8.81836h0.000976562h26.0977v50.9863h-45.2266zM123.022 23.1826h45.2266v234.026h-45.4404zM52.9775 23.1826h51.9111v234.026h-52.124zM213.902 114.702h45.2266v73.8135h-45.2266v-73.8135zM375.111 274.986h52.2666v39.6094
c-15.1758 0.324219 -38.5908 5.93066 -52.2666 12.5156v-52.125zM305.066 274.986h52.2666v63.1475c-2.40527 1.83398 -6.13281 5.01953 -8.31934 7.11035c-21.8311 21.334 -34.4893 33.3516 -43.9473 41.8848v-112.143zM249.031 274.986h38.2578v124.587
c-0.0439453 0.322266 -0.0791016 0.847656 -0.0791016 1.17383c0 0.325195 0.0351562 0.850586 0.0791016 1.17285c-9.70312 6.31152 -26.9697 11.6318 -38.542 11.876zM186.026 274.986h45.2266v139.165c-13.625 -0.0439453 -33.918 -6.16016 -45.2979 -13.6533
c0.00683594 -0.12793 0.0126953 -0.334961 0.0126953 -0.462891c0 -0.126953 -0.00585938 -0.333984 -0.0126953 -0.461914zM123.022 274.986h45.2266v110.08c-5.68945 -5.4043 -12.7295 -12.3018 -22.8271 -22.2578l-17.9912 -17.6357
c-1.56445 -1.5166 -3.15234 -2.96289 -4.76367 -4.33691c0.0429688 -0.323242 0.078125 -0.848633 0.078125 -1.17383s-0.0351562 -0.850586 -0.078125 -1.17285zM52.9775 274.986h51.9111v53.5469c-13.4277 -7.46484 -36.7803 -14.1553 -52.124 -14.9336z" />
    </symbol>
   <symbol id="gymnasium" viewBox="0 -50 510 500">
		<path d="M385.28 90.5244h-42.667c-0.0595703 -0.000976562 -0.155273 -0.00292969 -0.214844 -0.00292969c-4.90625 0 -8.88867 3.98242 -8.88867 8.88965c0 0.0400391 0.000976562 0.104492 0.000976562 0.144531v65.7773h-187.021v-65.7773
c0 -4.90723 -3.98242 -8.88867 -8.88965 -8.88867h-42.666c-0.0595703 -0.00195312 -0.154297 -0.00292969 -0.213867 -0.00292969c-4.90625 0 -8.88867 3.98242 -8.88867 8.88867v0.00292969v18.0625h-34.0625c-4.90625 0 -8.88867 3.98145 -8.88867 8.88867v31.7158
h-33.9912c-4.90625 0 -8.88867 3.98145 -8.88867 8.88867v49.7773c0 4.90723 3.98242 8.88867 8.88867 8.88867h33.9912v31.7158c0 4.90723 3.98242 8.88867 8.88867 8.88867h33.9912v18.0625c0 4.90723 3.98242 8.88867 8.88867 8.88867h42.667
c0.078125 0.00292969 0.206055 0.00488281 0.28418 0.00488281c4.90723 0 8.88965 -3.98242 8.88965 -8.88867v-0.00488281v-65.9199h187.021v65.9199c0 4.90723 3.98242 8.88867 8.88965 8.88867h42.666c0.0595703 0.00195312 0.154297 0.00292969 0.213867 0.00292969
c4.90625 0 8.88867 -3.98242 8.88867 -8.88867v-0.00292969v-18.2041h33.9912c4.90625 0 8.88867 -3.98242 8.88867 -8.88867v-31.7158h34.0625c4.90625 0 8.88867 -3.98242 8.88867 -8.88867v-49.7783c0 -4.90625 -3.98242 -8.88867 -8.88867 -8.88867h-33.9912v-31.7158
c0 -4.90625 -3.98242 -8.88867 -8.88867 -8.88867h-34.0625v-17.9199c0.000976562 -0.0390625 0.000976562 -0.103516 0.000976562 -0.142578c0 -4.90625 -3.98242 -8.88867 -8.88867 -8.88867h-0.000976562zM351.289 108.302h25.1016v167.396h-25.1016v-167.396z
M103.609 108.302h25.1016v167.396h-25.1016v-167.396zM394.169 135.111h25.1025v113.777h-25.1025v-113.777zM60.6582 135.111h25.1016v113.777h-25.1016v-113.777zM437.049 175.716h25.1025v32h-25.0312zM17.4932 175.716h25.3867v32h-25.1025zM146.204 182.827h187.307
v17.7773h-187.021z" />
    </symbol>
	
	<symbol id="multi_purpose_hall" viewBox="0 -50 510 500">
		<path 
d="M470.045 -31.4307v0l-166.045 0.639648c-4.90625 0 -8.88867 3.98242 -8.88867 8.88867v76.0176l-109.512 0.426758v-76.0176c0 -4.90625 -3.98145 -8.88867 -8.88867 -8.88867v0l-167.822 0.710938c-4.90625 0 -8.88867 3.98242 -8.88867 8.88867
c0 4.90723 3.98242 8.88867 8.88867 8.88867h11.0938l0.995117 253.653h-11.0928c-4.90723 0 -8.88965 3.98242 -8.88965 8.88965c0 4.90625 3.98242 8.88867 8.88965 8.88867h40.5332v138.026h-16.2139c-4.90625 0 -8.88867 3.98242 -8.88867 8.88867
c0 4.90723 3.98242 8.88965 8.88867 8.88965v0l411.521 -1.63574c4.90625 0 8.88867 -3.98242 8.88867 -8.88867c0 -4.90723 -3.98242 -8.88965 -8.88867 -8.88965h-22.8271v-137.955h48.2139c4.90625 0 8.88867 -3.98242 8.88867 -8.88867
c0 -4.90723 -3.98242 -8.88965 -8.88867 -8.88965h-11.0938l-0.995117 -253.866h11.0225c4.90625 0 8.88867 -3.98242 8.88867 -8.88867c0 -4.90723 -3.98242 -8.88867 -8.88867 -8.88867zM313.031 -13.084l128 -0.498047l0.995117 253.725l-403.271 1.63477
l-0.996094 -253.724l130.205 -0.498047v76.0176c0 4.90723 3.98145 8.88867 8.88867 8.88867v0l127.289 -0.49707c4.90625 0 8.88867 -3.98242 8.88867 -8.88965v-76.1592zM68.1953 259.342l336.996 -1.2793v138.169l-336.996 1.2793v-138.169zM398.72 112.569v0h-64.5684
c-4.87012 0.0361328 -8.82227 4.01855 -8.82227 8.88867c0 0.078125 0.00195312 0.206055 0.00390625 0.28418v64c0 4.90625 3.98242 8.88867 8.88965 8.88867v0h64.5684c0.0507812 0.000976562 0.132812 0.00195312 0.183594 0.00195312
c4.90625 0 8.88867 -3.98242 8.88867 -8.88867c0 -0.236328 -0.0185547 -0.620117 -0.0410156 -0.855469v-64c-0.292969 -4.59375 -4.26758 -8.32324 -8.87109 -8.32324c-0.0634766 0 -0.166992 0.00195312 -0.231445 0.00390625zM343.111 130.56h46.791v45.9385h-46.791
v-45.9385zM272 113.066v0h-64.5693c-4.90625 0 -8.88867 3.98242 -8.88867 8.88867v64c0 4.90723 3.98242 8.88965 8.88867 8.88965v0h64.5693c4.90625 0 8.88867 -3.98242 8.88867 -8.88965v-64v-0.00390625c0 -4.75195 -3.85449 -8.73242 -8.60449 -8.88477h-0.28418z
M216.391 131.058h46.792v45.9375h-46.792v-45.9375zM145.849 113.777v0h-64.5684c-4.90723 0 -8.88965 3.98242 -8.88965 8.88965v64c0 4.90625 3.98242 8.88867 8.88965 8.88867v0h64.5684c4.87793 -0.0292969 8.83594 -4.01172 8.83594 -8.88867
c0 -0.157227 -0.0078125 -0.412109 -0.0175781 -0.569336v-64c-0.292969 -4.56543 -4.24316 -8.29297 -8.81836 -8.32031zM90.2402 131.556h46.791v45.9375l-46.3643 0.28418zM334.862 289.92v0h-64.5693h-0.0751953c-4.90723 0 -8.88867 3.98242 -8.88867 8.88867
c0 0.078125 0.00195312 0.206055 0.00390625 0.285156v64c0 4.90625 3.98242 8.88867 8.88965 8.88867v0h64.5684c0.0810547 0.00292969 0.213867 0.00488281 0.294922 0.00488281c4.90723 0 8.88867 -3.98242 8.88867 -8.88867
c0 -0.119141 -0.00390625 -0.3125 -0.00976562 -0.431641v-64c-0.0761719 -4.83008 -4.05762 -8.75 -8.88867 -8.75c-0.0585938 0 -0.154297 0.00195312 -0.213867 0.00292969zM279.253 307.911h46.792v45.9375h-46.792v-45.9375zM208.143 290.418v0h-64.5693
c-4.90625 0 -8.88867 3.98242 -8.88867 8.88867v64c0 4.90625 3.98242 8.88867 8.88867 8.88867v0h64.5693c0.143555 0.00878906 0.376953 0.015625 0.521484 0.015625c4.90723 0 8.88867 -3.98242 8.88867 -8.88867c0 -0.181641 -0.0107422 -0.474609 -0.0234375 -0.655273
v-64c0 -4.90723 -3.98242 -8.88965 -8.88965 -8.88965zM152.533 308.409h46.791v45.9375h-46.791v-45.9375z" />
    </symbol>
	<symbol id="video-intercom" viewBox="0 -50 510 500">
	<path d="M124.444 -48h-49.7773c-24.4941 0.0390625 -44.4053 19.9502 -44.4443 44.4443v391.111c0.0390625 24.4941 19.9502 44.4053 44.4443 44.4443h49.7773c16.8145 -0.0205078 35.3877 -12.7637 41.458 -28.4443h25.3867c4.8916 7.83887 16.3604 14.21 25.5996 14.2217
h241.778c16.6826 0 30.2217 -13.5391 30.2217 -30.2217v-391.111c0 -16.6826 -13.5391 -30.2217 -30.2217 -30.2217h-241.778c-9.23926 0.0117188 -20.708 6.38281 -25.5996 14.2217h-25.3867c-6.07031 -15.6807 -24.6436 -28.4238 -41.458 -28.4443zM74.667 414.223
c-14.7207 0 -26.667 -11.9473 -26.667 -26.667v-391.111c0 -14.7197 11.9463 -26.667 26.667 -26.667h49.7773c11.9834 0.0400391 23.6758 9.59766 26.0977 21.334v0c0.275391 1.39844 0.498047 3.68945 0.498047 5.11523v0.0751953v391.254v0
c0 14.6807 -11.915 26.627 -26.5957 26.667h-49.7773zM216.889 400c-6.86914 0 -12.4443 -5.5752 -12.4443 -12.4443v-391.111c0 -6.86914 5.5752 -12.4443 12.4443 -12.4443h241.778c6.86914 0 12.4443 5.5752 12.4443 12.4443v391.111
c0 6.86914 -5.5752 12.4443 -12.4443 12.4443h-241.778zM168.889 -1.77734h17.7783v387.555h-17.7783v-387.555zM334.934 11.2354c-15.6113 0.0742188 -37.2422 9.08984 -48.2852 20.125c-10.9512 10.7832 -19.8398 32.0088 -19.8398 47.3779v0.266602
c-0.00292969 0.256836 -0.00585938 0.673828 -0.00585938 0.930664c0 36.9834 30.0127 67.4043 66.9932 67.9043c0.554688 0.0175781 1.45703 0.03125 2.01172 0.03125c14.8154 0 35.418 -8.4248 45.9883 -18.8047c11.4648 -11.1855 20.8623 -33.2627 20.9775 -49.2793v0
c0.000976562 -0.119141 0.000976562 -0.311523 0.000976562 -0.429688c0 -37.2529 -30.2334 -67.7402 -67.4854 -68.0508zM335.645 130.062h-1.42188h-0.0185547c-27.4775 0 -49.7783 -22.3008 -49.7783 -49.7783c0 -0.373047 0.00878906 -0.977539 0.0185547 -1.35059
v-0.174805c0 -11.293 6.53125 -26.8887 14.5781 -34.8125c8.26758 -8.12891 24.3877 -14.8193 35.9824 -14.9326c27.4775 0.271484 49.7783 22.7939 49.7783 50.2725c0 0.0791016 -0.000976562 0.208008 -0.000976562 0.287109v0v0.204102
c0 11.7578 -6.72168 28.0732 -15.0049 36.418c-7.78809 7.65527 -22.9727 13.8672 -33.8936 13.8672h-0.239258zM334.648 45.2266h-0.425781c-18.6855 0.571289 -33.8496 16.2061 -33.8496 34.8994v0.0869141c0.862305 18.7246 16.7744 33.9209 35.5186 33.9209h0.0371094
h0.426758c7.71875 -0.0986328 18.2314 -4.78223 23.4668 -10.4541c5.14453 -5.49121 9.31934 -16.0547 9.31934 -23.5791c0 -0.145508 -0.00195312 -0.381836 -0.00390625 -0.527344v-0.115234c0 -8.02246 -4.61914 -19.1211 -10.3105 -24.7734
c-5.45312 -5.2627 -16.0283 -9.53418 -23.6064 -9.53418c-0.157227 0 -0.414062 0.00292969 -0.572266 0.00488281v0.0712891zM335.716 96.3555h-0.117188c-9.0918 0 -17.0039 -7.3584 -17.6611 -16.4268c0.0634766 -8.93652 7.3584 -16.5508 16.2852 -16.9951
c0.189453 -0.0078125 0.499023 -0.0146484 0.689453 -0.0146484c3.56934 0 8.58105 1.98145 11.1855 4.42285c2.70996 2.7793 4.9082 8.18359 4.9082 12.0645c0 0.0654297 -0.000976562 0.172852 -0.000976562 0.238281v0
c0.000976562 0.0742188 0.00195312 0.194336 0.00195312 0.268555c0 3.66309 -2.04004 8.7998 -4.55371 11.4648c-2.37207 2.59668 -7.15039 4.7627 -10.666 4.83496zM424.817 219.235h-180.053c-4.90723 0 -8.88867 3.98242 -8.88867 8.88867v136.249
c0 4.90723 3.98145 8.88965 8.88867 8.88965h180.053h0.0712891c4.90723 0 8.88867 -3.98242 8.88867 -8.88867v-0.000976562v-136.249v0c0 -4.90625 -3.98145 -8.88867 -8.88867 -8.88867h-0.0712891zM253.725 237.014h162.204v118.542h-162.275z" />
    </symbol>
	<symbol id="video-door-phone" viewBox="0 0 403.729 403.729">
	
		<path d="M168.417,117.173c3.337,0,6.339-2.291,7.226-5.505c1.79-6.487-5.571-11.893-11.232-8.322
			c-2.766,1.745-4.082,5.178-3.216,8.332C162.076,114.889,165.086,117.173,168.417,117.173z"/>
		<path d="M229.262,150.059c-2.372,2.095-3.166,5.563-1.956,8.484c1.149,2.772,3.914,4.63,6.92,4.63c3.756,0,6.966-2.863,7.439-6.578
			C242.521,149.883,234.304,145.606,229.262,150.059z"/>
		<path d="M264.227,163.173c3.411,0,6.431-2.38,7.276-5.672c1.689-6.575-5.96-11.795-11.502-8.018
			c-2.666,1.817-3.898,5.278-2.947,8.371C258.015,160.974,260.949,163.173,264.227,163.173z"/>
		<path d="M382.798,64.648H187.829c-16.871-29.421-48.596-49.284-84.875-49.284c-53.908,0-97.766,43.857-97.766,97.766
			c0,40.419,24.655,75.187,59.715,90.056C26.914,218.35,0,255.514,0,298.85v82.015c0,4.142,3.357,7.5,7.5,7.5h190.908
			c4.143,0,7.5-3.358,7.5-7.5v-75.497h156.82c22.607,0,41-18.388,41-40.99v-178.8C403.729,74.037,394.339,64.648,382.798,64.648z
			 M246.119,79.648c-0.007,0.798,0.108,1.602,0.367,2.38c1.014,3.041,3.911,5.145,7.121,5.145c3.341,0,6.32-2.291,7.218-5.496
			c0.195-0.694,0.264-1.371,0.262-2.03h121.711c3.271,0,5.931,2.66,5.931,5.93v165.31H194.031c-2.003-3.789-4.235-7.438-6.679-10.93
			h182.946c4.143,0,7.5-3.358,7.5-7.5V98.078c0-4.142-3.357-7.5-7.5-7.5H198.09c-0.884-3.729-1.978-7.378-3.277-10.93H246.119z
			 M304.963,290.368h-99.406c-0.696-8.49-2.421-16.693-5.059-24.48h135.416C332.539,279.874,319.955,290.305,304.963,290.368z
			 M200.43,105.578h162.367v119.38h-63.702c-2.247-7.423-6.276-14.164-11.86-19.749c-2.554-2.559-5.356-4.778-8.341-6.661
			c12.106-8.158,20.086-21.992,20.086-37.657c0-25.021-20.356-45.377-45.377-45.377c-25.021,0-45.378,20.356-45.378,45.377
			c0,15.643,7.957,29.462,20.035,37.624c-9.519,5.965-16.791,15.241-20.162,26.442h-33.531c-9.585-9.292-20.963-16.743-33.562-21.772
			c35.06-14.87,59.715-49.638,59.715-90.056C200.72,110.589,200.622,108.07,200.43,105.578z M253.583,206.269
			c0.007,0,0.014,0,0.021,0c0.007,0,0.013,0,0.02,0c8.694,0.005,16.86,3.392,23.002,9.543c2.694,2.694,4.84,5.787,6.423,9.146
			h-58.927C229.34,213.756,240.624,206.277,253.583,206.269z M223.226,160.892c0-16.75,13.628-30.377,30.378-30.377
			s30.377,13.627,30.377,30.377c0,16.743-13.616,30.366-30.357,30.377c-0.007,0-0.013,0-0.02,0c-0.007,0-0.014,0-0.021,0
			C236.843,191.258,223.226,177.635,223.226,160.892z M20.188,113.129c0-45.637,37.129-82.766,82.766-82.766
			s82.766,37.128,82.766,82.766s-37.129,82.766-82.766,82.766S20.188,158.767,20.188,113.129z M15,298.85
			c0-48.499,39.456-87.955,87.954-87.955s87.954,39.456,87.954,87.955v30.328h-32.99v-35.5c0-4.142-3.357-7.5-7.5-7.5
			s-7.5,3.358-7.5,7.5v79.687H15V298.85z M157.918,373.365v-29.187h32.99v29.187H157.918z M362.729,290.368h-23.525
			c6.198-6.658,10.49-15.107,12.001-24.48h37.481C387.9,279.519,376.559,290.368,362.729,290.368z"/>
	</symbol>
	
	<symbol id="senior-citizen-park" viewBox="0 0 492.354 492.354">
		
		<path d="M315.525,390.769c-4.256-4.199-10.003-6.551-15.975-6.551h-20.122v-13.015h16.894c5.425,0,9.825-4.399,9.825-9.826v-12.853
			c0-5.426-4.4-9.826-9.825-9.826h-16.894v-16.818h16.894c5.425,0,9.825-4.4,9.825-9.826v-12.854c0-5.426-4.4-9.825-9.825-9.825
			h-16.894v-12.708c0-9.082-7.351-16.442-16.438-16.442s-16.442,7.36-16.442,16.442v12.708H98.57v-12.708
			c0-9.082-7.351-16.442-16.438-16.442c-9.088,0-16.442,7.36-16.442,16.442v12.708H48.795c-5.424,0-9.824,4.399-9.824,9.825v12.854
			c0,5.426,4.4,9.826,9.824,9.826h16.895v16.818H48.795c-5.424,0-9.824,4.4-9.824,9.826v12.853c0,5.427,4.4,9.826,9.824,9.826h16.895
			v13.015H45.555c-5.972,0-11.723,2.352-15.978,6.551L3.953,416.041c-2.828,2.795-3.695,7.032-2.184,10.726
			c1.507,3.686,5.105,6.093,9.088,6.093h21.947v41.104c0,9.079,7.354,16.442,16.442,16.442c9.087,0,16.442-7.363,16.442-16.442
			V432.86h213.739v41.104c0,9.079,7.354,16.442,16.442,16.442c9.088,0,16.442-7.363,16.442-16.442V432.86h21.932
			c3.985,0,7.58-2.407,9.092-6.093c1.507-3.693,0.641-7.931-2.185-10.726L315.525,390.769z M98.57,321.879h147.978v16.818H98.57
			V321.879z M98.57,371.204h147.978v13.015H98.57V371.204z"/>
		<path d="M96.498,2.47c0-0.032-0.027-0.065-0.061-0.065H9.846c-5.429,0-9.83,4.401-9.83,9.828v85.227C0.016,97.507,0,97.54,0,97.62
			c0.403,0,0.806,0.113,1.237,0.113C53.837,97.733,96.498,55.087,96.498,2.47z"/>
		<path d="M3.358,124.899v80.314c0,6.809,5.524,12.332,12.331,12.332c6.808,0,12.332-5.523,12.332-12.332v-80.314
			c0-6.807-5.524-12.33-12.332-12.33C8.882,112.569,3.358,118.092,3.358,124.899z"/>
		<path d="M63.424,99.772c-5.892,3.403-7.914,10.941-4.514,16.844l40.176,69.572c2.281,3.957,6.424,6.166,10.691,6.166
			c2.088,0,4.207-0.53,6.15-1.654c5.896-3.404,7.918-10.944,4.514-16.844l-40.176-69.572C76.864,98.4,69.349,96.345,63.424,99.772z"
			/>
		<path d="M102.891,81.659l69.573,40.174c1.942,1.124,4.063,1.654,6.15,1.654c4.268,0,8.41-2.209,10.691-6.166
			c3.405-5.9,1.382-13.438-4.51-16.844l-69.574-40.173c-5.907-3.428-13.456-1.38-16.841,4.514
			C94.975,70.717,96.998,78.256,102.891,81.659z"/>
		<path d="M123.508,29.428l80.33-0.016c6.807,0,12.332-5.523,12.332-12.33c0-6.816-5.525-12.332-12.332-12.332l-80.33,0.017
			c-6.807,0-12.332,5.523-12.332,12.331C111.176,23.914,116.701,29.428,123.508,29.428z"/>
		<path d="M439.432,1.948c-20.714,0-38.599,25.828-47.284,63.359c28.835,10.654,50.094,44.354,52.503,86.776
			c16.616,9.336,28.34,25.762,32.434,44.948c9.427-20.695,15.27-49.107,15.27-80.488C492.354,53.256,468.653,1.948,439.432,1.948z"/>
		<path d="M422.989,400.083c0,5.426,4.401,9.825,9.825,9.825h13.23c5.429,0,9.829-4.399,9.829-9.825V263.513
			c-9.151,8.245-20.407,13.785-32.885,15.624V400.083z"/>
		<path d="M428.257,162.737c0.016-0.858,0.178-1.67,0.178-2.537c0-45.456-24.842-82.305-55.494-82.305
			c-30.647,0-55.488,36.849-55.488,82.305c0,10.687,1.478,20.825,3.981,30.193c-13.569,8.567-22.479,22.745-22.479,38.85
			c0,26.187,23.459,47.423,52.41,47.423c1.266,0,2.439-0.315,3.691-0.403v123.82c0,5.426,4.4,9.825,9.825,9.825h29.064
			c5.425,0,9.825-4.399,9.825-9.825V262.278c3.309,0.826,6.726,1.373,10.276,1.373c26.671,0,48.296-23.161,48.296-51.726
			C462.343,188.7,447.943,169.272,428.257,162.737z"/>
	</symbol>
	
	<symbol id="indoor-games" viewBox="0 -50 510 500">
	<path d="M63.0049 -36.2666c-6.88867 0.0136719 -16.4463 3.96387 -21.334 8.81738l-15.6445 15.6445c-4.8418 4.90723 -8.77246 14.4844 -8.77246 21.3789c0 6.66309 3.70703 16.0098 8.27539 20.8613c6.39941 6.68457 13.1553 13.1553 19.6973 19.3418
c21.333 20.4805 42.0977 39.8936 48.498 68.4805c5.12012 22.8262 2.27539 45.4404 -0.710938 69.333c-0.474609 3.60286 -0.92513 7.22949 -1.35156 10.8799c-0.933594 7.04883 -1.69141 18.5391 -1.69141 25.6494c0 16.3701 3.94336 42.3447 8.80273 57.9775
c8.73145 26.5371 31.8604 64.0977 51.627 83.8398c79.2178 79.1465 204.657 82.4893 279.608 7.53809c58.9512 -58.9512 71.1113 -149.333 31.2891 -226.418c9.83691 -8.89551 17.8203 -26.8789 17.8203 -40.1416c0 -29.876 -24.2471 -54.123 -54.123 -54.123
c-11.5049 0 -27.7686 6.26367 -36.3018 13.9805c-0.435547 -0.477539 -1.23242 -1.14746 -1.77734 -1.49316c-27.3721 -17.335 -75.8818 -31.4033 -108.281 -31.4033c-2.81445 0 -7.37988 0.114258 -10.1904 0.256836c-37.6885 1.77734 -79.8574 14.2217 -115.982 -1.84961
c-19.4131 -8.46191 -34.7734 -24.8887 -49.7773 -40.7461c-6.25781 -6.68457 -12.7998 -13.6533 -19.5557 -19.9111c-4.69727 -4.35742 -13.71 -7.89355 -20.1172 -7.89355h-0.00683594zM109.796 251.235c-1.10352 -7.53906 -1.99805 -19.8408 -1.99805 -27.46
c0 -6.43945 0.639648 -16.8516 1.42871 -23.2422c0.426758 -3.55566 0.853516 -7.11133 1.28027 -10.7373c3.05762 -24.3916 6.18652 -49.7783 0.426758 -75.4492c-7.60938 -33.8486 -31.0049 -56.0352 -53.6182 -77.5107
c-6.39941 -6.04492 -13.0137 -12.3027 -19.0576 -18.7021c-1.90332 -2.02832 -3.44727 -5.93066 -3.44727 -8.71191c0 -2.78027 1.54395 -6.68262 3.44727 -8.71094l15.6445 -15.6445c2.03613 -1.98828 5.99805 -3.60254 8.84473 -3.60254
c2.57812 0 6.26172 1.35938 8.22168 3.03418c6.3291 5.90234 12.3027 12.3018 18.7021 19.0576c16.0713 17.1377 32.7109 34.915 55.4668 44.8711c13.8555 5.38086 37.1631 9.74805 52.0264 9.74805c6.86914 0 17.9355 -0.958984 24.7021 -2.13965
c25.8848 -3.76855 55.1113 -8.10645 81.9209 -3.83984l4.33691 0.710938zM114.347 271.857l214.044 -214.115c14.3672 4.25586 36.2539 14.291 48.8535 22.4004v0c-4.00293 6.93262 -7.25195 19.0557 -7.25195 27.0605c0 29.8721 24.2441 54.1162 54.1152 54.1162
c6.33789 0 16.1816 -2.08887 21.9727 -4.66113c35.5557 69.9014 24.0352 151.04 -28.9424 204.018c-68.0537 68.0527 -182.187 64.7109 -254.364 -7.4668c-18.1221 -18.0596 -39.3389 -52.4346 -47.3604 -76.7285c-0.284505 -1.47005 -0.663737 -2.9873 -1.1377 -4.55176z
M424.533 143.857v0c-20.0977 0 -36.4092 -16.3105 -36.4092 -36.4082s16.3115 -36.4092 36.4092 -36.4092s36.4092 16.3115 36.4092 36.4092c-0.0390625 20.0586 -16.3506 36.3379 -36.4092 36.3379h-0.0712891z" />
	</symbol>
	
	<symbol id="school-bus" viewBox="0 0 432.833 432.833">
	
	<path style="stroke:#000000;stroke-width:0;stroke-linecap:round;stroke-linejoin:round;" d="M432.758,266.925H412.61
		c-1.103-4.931-3.057-9.541-5.697-13.674h25.551c-0.555-18.498-1.688-34.59-3.146-48.49H99.09v-13.674h328.608
		c-3.829-28.781-8.912-46.175-12.033-54.885v-13.846c0-4.84-3.924-8.766-8.765-8.766H121.598c-4.842,0-8.766,3.926-8.766,8.766
		v15.801c0,3.733,2.337,6.912,5.624,8.176l-14.29,38.258c0,0-41.832,0-73.499,0c-17.625,0-23.168,11.244-23.168,19
		c0,3.418,0,6.879,0,10.334h10.167v22.25H7.499c0,4.768,0,9.259,0,13.31C2.932,253.15,0,258.771,0,265.083v0.838
		c0,11.045,8.954,20,20,20h26.878c4.38,19.059,21.469,33.32,41.839,33.32c20.369,0,37.458-14.262,41.838-33.32h198.323
		c4.38,19.059,21.469,33.32,41.839,33.32c22.083,0,40.319-16.76,42.674-38.227l19.442-5.094
		C432.823,272.865,432.797,269.872,432.758,266.925z M337.332,144.925h55.667v39.666h-55.667V144.925z M267.332,144.925h55.667
		v39.666h-55.667V144.925z M197.332,144.925h55.667v39.666h-55.667V144.925z M138.381,144.925h41.285v39.666h-55.333
		L138.381,144.925z M88.717,298.707c-12.354,0-22.403-10.05-22.403-22.402c0-12.353,10.05-22.402,22.403-22.402
		c12.353,0,22.402,10.05,22.402,22.402C111.119,288.657,101.069,298.707,88.717,298.707z M296.488,217.066h5.895v17.689
		c0,2.781,0.946,4.188,4.297,4.188c3.35,0,4.335-1.406,4.335-4.188v-17.689h5.896v17.859c0,5.695-2.512,8.709-10.23,8.709
		c-7.716,0-10.192-3.014-10.192-8.709V217.066z M273.696,217.066h9.322c4.441,0,9.138,1.107,9.138,7.238v0.668
		c0,2.383-1.126,3.854-2.767,4.725c2.041,0.906,3.497,2.514,3.497,5.326v0.672c0,6.363-4.987,7.502-9.575,7.502h-9.614V217.066z
		 M247.451,217.066h5.9v21.443h10.483v4.688h-16.384V217.066z M222.332,229.464c0-9.043,3.457-12.83,10.813-12.83
		c7.395,0,10.852,3.787,10.852,12.83v1.338c0,9.045-3.457,12.832-10.852,12.832c-7.355,0-10.813-3.787-10.813-12.832V229.464z
		 M197.833,229.464c0-9.043,3.458-12.83,10.814-12.83c7.39,0,10.852,3.787,10.852,12.83v1.338c0,9.045-3.462,12.832-10.852,12.832
		c-7.355,0-10.814-3.787-10.814-12.832V229.464z M174.317,217.066h5.898v10.455h8.264v-10.455h5.898v26.131h-5.898V232.21h-8.264
		v10.986h-5.898V217.066z M150.035,229.464c0-9.043,3.279-12.83,10.669-12.83c6.733,0,10.157,2.611,10.157,9.145v1.207h-5.899
		c0-3.584-0.834-5.662-3.932-5.662h-0.326c-3.788,0-4.695,2.912-4.695,8.141v1.338c0,5.229,0.907,8.141,4.695,8.141h0.326
		c2.876,0,3.932-1.844,3.932-4.654h5.899v0.301c0,6.432-3.424,9.045-10.157,9.045c-7.39,0-10.669-3.787-10.669-12.832V229.464z
		 M126.882,234.289h5.9c0,3.281,1.455,4.654,4.188,4.654h0.326c2.732,0,4.079-1.34,4.079-3.082v-0.166
		c0-1.875-1.056-2.916-5.17-3.418c-6.191-0.771-9.101-2.779-9.101-7.502v-0.369c0-4.723,3.527-7.771,10.009-7.771
		c6.99,0,10.048,2.846,10.048,8.975v0.705h-5.895c0-3.414-1.13-4.99-4.115-4.99h-0.329c-2.368,0-3.75,1.207-3.75,2.879v0.166
		c0,1.914,0.839,2.918,4.987,3.42c6.19,0.77,9.323,2.713,9.323,7.57v0.336c0,5.023-3.605,7.939-10.27,7.939
		c-6.699,0-10.231-2.746-10.231-9.045V234.289z M328.822,266.925H130.61c-1.104-4.931-3.057-9.541-5.697-13.674h209.607
		C331.878,257.384,329.926,261.995,328.822,266.925z M340.501,235.695c0,5.023-3.605,7.939-10.265,7.939
		c-6.704,0-10.236-2.746-10.236-9.045v-0.301h5.9c0,3.281,1.455,4.654,4.188,4.654h0.326c2.732,0,4.079-1.34,4.079-3.082v-0.166
		c0-1.875-1.056-2.916-5.17-3.418c-6.189-0.771-9.102-2.779-9.102-7.502v-0.369c0-4.723,3.532-7.771,10.015-7.771
		c6.989,0,10.047,2.846,10.047,8.975v0.705h-5.898c0-3.414-1.129-4.99-4.114-4.99h-0.33c-2.364,0-3.749,1.207-3.749,2.879v0.166
		c0,1.914,0.838,2.918,4.986,3.42c6.191,0.77,9.323,2.713,9.323,7.57V235.695z M370.717,298.707
		c-12.353,0-22.403-10.05-22.403-22.402c0-12.353,10.05-22.402,22.403-22.402c12.353,0,22.402,10.05,22.402,22.402
		C393.119,288.657,383.069,298.707,370.717,298.707z"/>
	<path style="stroke:#000000;stroke-width:0;stroke-linecap:round;stroke-linejoin:round;" d="M286.916,235.492v-0.299
		c0-2.379-1.785-2.982-3.424-2.982h-3.895v6.299h3.895C285.131,238.509,286.916,237.871,286.916,235.492z"/>
	<path style="stroke:#000000;stroke-width:0;stroke-linecap:round;stroke-linejoin:round;" d="M286.186,224.839v-0.434
		c0-2.146-1.677-2.648-3.206-2.648h-3.384v5.73h3.384C284.51,227.488,286.186,226.986,286.186,224.839z"/>
	<path style="stroke:#000000;stroke-width:0;stroke-linecap:round;stroke-linejoin:round;" d="M233.001,238.943h0.325
		c3.641,0,4.662-2.912,4.662-8.141v-1.338c0-5.229-1.021-8.141-4.662-8.141h-0.325c-3.641,0-4.696,2.912-4.696,8.141v1.338
		C228.305,236.031,229.36,238.943,233.001,238.943z"/>
	<path style="stroke:#000000;stroke-width:0;stroke-linecap:round;stroke-linejoin:round;" d="M208.502,238.943h0.326
		c3.641,0,4.661-2.912,4.661-8.141v-1.338c0-5.229-1.021-8.141-4.661-8.141h-0.326c-3.641,0-4.695,2.912-4.695,8.141v1.338
		C203.807,236.031,204.861,238.943,208.502,238.943z"/>
	</symbol>
	
	<symbol id="children-play-area" viewBox="0 -50 510 500">
	<path d="M214.329 -48c-0.666992 -0.0488281 -1.75 -0.0878906 -2.41797 -0.0878906s-1.75098 0.0390625 -2.41797 0.0878906c-16.1143 2.29785 -29.1914 17.374 -29.1914 33.6504c0 2.41016 0.494141 6.25781 1.10254 8.58984l32.3555 125.227h-6.25781l-5.61719 -16.5693
c-4.24414 -12.7314 -18.5801 -23.0645 -32 -23.0645c-18.6201 0 -33.7314 15.1123 -33.7314 33.7314c0 3.02148 0.775391 7.7998 1.73145 10.667c11.4482 34.8438 25.6709 80.3555 31.502 101.831c-10.4512 -6.2334 -25.1377 -18.9766 -32.7822 -28.4443
c-4.40918 -4.76465 -8.60449 -9.24512 -12.7998 -13.2979c-5.28027 -5.00293 -15.4697 -9.06348 -22.7432 -9.06348c-6.42285 0 -15.6982 3.26367 -20.7061 7.28516c-5.9873 5.16504 -10.8936 15.7734 -10.9512 23.6807
c-0.0107422 0.308594 -0.0195312 0.80957 -0.0195312 1.11914c0 7.63574 4.50098 18.0938 10.0459 23.3428l22.1162 21.333c30.0088 35.5557 74.8086 54.542 136.889 57.6006c20.5508 0.995117 41.3154 0.426758 61.3691 0h7.11133
c25.3857 -0.640625 49.3506 -1.28027 75.5908 -16c10.8174 -6.36914 27.7012 -17.7109 37.6885 -25.3164c4.97754 -3.62598 9.95605 -7.11035 15.0049 -10.8086c7.46484 -4.89551 14.251 -16.0781 15.1465 -24.96c0.102539 -0.990234 0.186523 -2.60254 0.186523 -3.59766
c0 -7.70898 -4.32031 -18.4893 -9.64453 -24.0645c-5.50488 -5.67578 -16.3896 -10.2822 -24.2969 -10.2822c-5.87305 0 -14.5488 2.72656 -19.3652 6.08691l-34.5596 23.751l-21.334 14.2217c-3.20996 1.53418 -8.7041 2.7793 -12.2627 2.7793
c-1.25488 0 -3.28027 -0.161133 -4.51953 -0.361328l-77.5107 -264.746c-4.06445 -13.3896 -18.7188 -24.2852 -32.7109 -24.3203zM201.173 137.6h24.1074c4.90234 -0.00292969 8.88184 -3.98535 8.88184 -8.88867c0 -0.618164 -0.124023 -1.60547 -0.277344 -2.2041
l-35.5557 -136.32v0c-0.288086 -1.10742 -0.521484 -2.93457 -0.521484 -4.07812c0 -7.74707 6.22266 -14.9365 13.8906 -16.0459c0.641602 -0.09375 1.69043 -0.168945 2.33984 -0.168945c6.66211 0 13.6416 5.17285 15.5801 11.5469l80 270.933
c1.03027 3.5332 4.85254 6.40039 8.5332 6.40039h5.61719c1.67383 0.237305 4.40527 0.430664 6.0957 0.430664c6.47168 0 16.2607 -2.64648 21.8516 -5.90625l21.333 -14.2227l34.916 -23.8223c2.30566 -1.63477 6.4707 -2.96289 9.29785 -2.96289
c3.75488 0 8.92383 2.1875 11.5371 4.88281c2.60059 2.72949 4.71094 8.00391 4.71094 11.7734c0 0.481445 -0.0390625 1.25977 -0.0888672 1.73828c-0.581055 4.27246 -4.02148 9.59277 -7.67969 11.875c-5.12012 3.55566 -10.1689 7.11133 -15.2891 11.0225
c-9.52051 7.25391 -25.6084 18.085 -35.9111 24.1777c-20.9062 11.7334 -39.3955 13.0137 -67.3418 13.7246h-7.11133c-19.6982 0.498047 -40.1064 1.06641 -60.0176 0c-56.8887 -2.84473 -97.707 -19.6973 -124.373 -51.627l-0.640625 -0.710938l-22.7559 -22.0439
c-2.37012 -2.40723 -4.29297 -7.10156 -4.29297 -10.4795c0 -0.248047 0.0117188 -0.650391 0.0263672 -0.898438c0.0957031 -3.21387 2.10254 -7.57812 4.48047 -9.74219c2.27734 -1.75586 6.45996 -3.18164 9.33496 -3.18164c3.39062 0 8.12793 1.90332 10.5762 4.24805
c3.76855 3.55566 7.75098 7.89355 12.0176 12.4443c11.6621 12.5869 24.8887 26.8086 40.3916 33.2803c1.78809 0.78125 4.82227 1.41504 6.77441 1.41504c3.50977 0 8.50293 -1.87695 11.1455 -4.18848c3.16211 -2.75684 5.72852 -8.40039 5.72852 -12.5957
c0 -1.25684 -0.272461 -3.25977 -0.608398 -4.4707c-5.68945 -20.9072 -20.623 -68.4092 -32.1426 -104.463c-0.0175781 -0.27832 -0.0322266 -0.730469 -0.0322266 -1.00977c0 -8.75391 7.10449 -15.8584 15.8574 -15.8584c4.77344 0 10.7451 3.25684 13.3301 7.26855
l7.68066 22.6133c1.10742 3.37695 4.8916 6.11719 8.44531 6.11719c0.0439453 0 0.115234 -0.000976562 0.158203 -0.00195312zM190.08 -7.60938v0zM112.995 -47.4307c-28.6152 0 -51.8398 23.2236 -51.8398 51.8398c0 28.6152 23.2246 51.8398 51.8398 51.8398
c28.6162 0 51.8408 -23.2246 51.8408 -51.8398c0.0078125 -0.332031 0.0136719 -0.870117 0.0136719 -1.20117c0 -11.2246 -6.37793 -26.8389 -14.2363 -34.8525c-8.52832 -8.75293 -25.3682 -15.8574 -37.5898 -15.8574h-0.0283203v0.0712891zM112.995 38.4004
c-0.428711 0.0195312 -1.12598 0.0351562 -1.55566 0.0351562c-18.8018 0 -34.0625 -15.2598 -34.0625 -34.0625c0 -18.8018 15.2607 -34.0615 34.0625 -34.0615c0.429688 0 1.12695 0.015625 1.55566 0.0351562c7.98828 0.0273438 19.0117 4.67871 24.6045 10.3818
c5.22461 5.23047 9.46387 15.4736 9.46387 22.8662c0 0.166016 -0.00292969 0.43457 -0.00585938 0.600586c0.00195312 0.137695 0.00390625 0.362305 0.00390625 0.5c0 18.6064 -15.1006 33.707 -33.707 33.707c-0.0986328 0 -0.259766 -0.000976562 -0.359375 -0.00195312
zM276.551 326.187v0c-29.2041 0 -52.9062 23.7021 -52.9062 52.9072c0 29.2041 23.7021 52.9062 52.9062 52.9062c29.2051 0 52.9072 -23.7021 52.9072 -52.9062c-0.0390625 -29.2051 -23.7734 -52.9072 -52.9775 -52.9072h-0.213867h0.28418zM276.551 414.223v0
c-19.3906 0 -35.1289 -15.7383 -35.1289 -35.1289c0 -19.3916 15.7383 -35.1289 35.1289 -35.1289c19.3916 0 35.1289 15.7373 35.1289 35.1289c-0.0380859 19.3906 -15.8076 35.1289 -35.1992 35.1289h-0.213867h0.28418z" />
	</symbol>
	
	<symbol id="elevator" viewBox="0 0 512 512">
		<g><g><rect y="496.289" width="512" height="15.61"/></g></g><g><g><polygon points="112.39,103.969 112.39,487.969 128,487.969 128,119.579 384,119.579 384,487.969 399.61,487.969 399.61,103.969 "/></g></g><g><g><rect x="247.675" y="127.909" width="15.61" height="360.065"/></g></g><g><g><path d="M416.193,272.098v111.609h63.61V272.098H416.193z M464.193,368.097h-32.39v-80.389h32.39V368.097z"/></g></g><g><g><rect x="440.195" y="303.768" width="15.61" height="15.61"/></g></g><g><g><rect x="440.195" y="336.029" width="15.61" height="15.61"/></g></g><g><g><path d="M112.197,0.101v87.609h287.606V0.101H112.197z M384.193,72.101H127.806v-56.39h256.386V72.101z"/></g></g><g><g><polygon points="160.001,28.869 138.482,50.388 149.521,61.425 160.001,50.944 170.482,61.425 181.52,50.388 "/></g></g><g><g><polygon points="226.482,26.387 216.001,36.869 205.52,26.387 194.482,37.425 216.001,58.944 237.519,37.425 "/></g></g><g><g><rect x="256" y="40.489" width="15.61" height="15.61"/></g></g><g><g><rect x="279.935" y="40.489" width="15.61" height="15.61"/></g></g><g><g><rect x="303.87" y="40.489" width="15.61" height="15.61"/></g></g><g><g><rect x="327.805" y="40.489" width="16.65" height="15.61"/></g></g><g><g><rect x="351.74" y="40.489" width="16.65" height="15.61"/></g></g><g><g><path d="M16.199,104.101v127.608h79.609V104.101H16.199z M80.198,216.099H31.809v-96.388h48.389V216.099z"/></g></g><g><g><rect x="39.545" y="136.234" width="32.26" height="15.61"/></g></g><g><g><rect x="39.545" y="160.169" width="24.976" height="15.61"/></g></g><g><g><rect x="39.545" y="184.104" width="16.65" height="15.61"/></g></g>
	</symbol>
	
	<symbol id="power-backup" viewBox="0 0 512 512">
		<path d="M486.4,119.467H290.133V102.4h34.133c10.048,0,18.19-9.438,22.467-25.6h49.341c0.229,0.012,0.456,0.067,0.683,0.067
				c0.58,0.001,1.159-0.039,1.733-0.121c0.764-0.155,1.518-0.352,2.26-0.589l0.158-0.041c7.98-2.553,15.132-7.194,20.715-13.441
				c10.025-10.367,18.7-25.621,10.142-34.471l-0.035-0.024c-1.055-1.022-2.358-1.751-3.781-2.114
				c-0.72-0.249-1.471-0.401-2.231-0.451l-0.077-0.015h-78.908C342.456,9.438,334.315,0,324.267,0h-153.6
				c-17.592,0-25.6,26.542-25.6,51.2c0,24.658,8.008,51.2,25.6,51.2H204.8v17.067H25.6c-14.132,0.015-25.585,11.468-25.6,25.6v307.2
				c0.015,14.132,11.468,25.585,25.6,25.6c14.132,0.015,25.585,11.468,25.6,25.6c-0.001,2.263,0.898,4.434,2.499,6.035
				c1.6,1.6,3.771,2.499,6.035,2.499h384c2.263,0.001,4.434-0.898,6.035-2.499c1.6-1.6,2.499-3.771,2.499-6.035
				c0.015-14.132,11.468-25.585,25.6-25.6h8.533c14.132-0.015,25.585-11.468,25.6-25.6v-307.2
				C511.985,130.935,500.532,119.482,486.4,119.467z M193.658,85.333h-22.604c-2.619-1.374-8.921-13.191-8.921-34.133
				c0-21.167,6.45-33.05,8.533-34.133h22.992c-4.105,10.904-6.115,22.484-5.925,34.133C187.543,62.849,189.554,74.43,193.658,85.333
				z M34.133,460.8H25.6c-4.711-0.005-8.529-3.823-8.533-8.533v-307.2c0.005-4.711,3.822-8.529,8.533-8.533h8.533V460.8z
				 M324.258,17.3c4.129,5.278,6.639,11.641,7.225,18.317c0.096,0.3,0.211,0.593,0.344,0.879c0.283,1.072,0.8,2.068,1.513,2.918
				c0.341,0.43,0.723,0.826,1.142,1.181c0.4,0.328,0.831,0.618,1.285,0.866c0.49,0.282,1.007,0.512,1.544,0.687
				c0.516,0.157,1.046,0.265,1.582,0.32c0.326,0.087,0.656,0.154,0.99,0.199h75.842c-1.808,2.948-3.944,5.682-6.367,8.15
				c-3.427,3.956-7.767,7.016-12.644,8.917h-56.831c-0.321,0.045-0.64,0.109-0.953,0.192c-1.107,0.098-2.179,0.439-3.14,0.998
				c-0.953,0.509-1.789,1.213-2.452,2.066c-0.712,0.851-1.228,1.848-1.513,2.92c-0.131,0.284-0.245,0.576-0.341,0.874
				c-0.586,6.676-3.096,13.039-7.226,18.317c-2.808-2.267-8.525-13.967-8.525-33.9S321.45,19.567,324.258,17.3z M281.6,17.067
				h22.992c-4.105,10.904-6.115,22.484-5.925,34.133c-0.19,11.649,1.82,23.23,5.925,34.133h-22.604
				c-2.619-1.374-8.921-13.191-8.921-34.133C273.067,30.033,279.517,18.15,281.6,17.067z M213.333,17.067h48.592
				C257.82,27.97,255.81,39.551,256,51.2c-0.19,11.649,1.82,23.23,5.925,34.133h-48.204c-2.619-1.374-8.921-13.191-8.921-34.133
				C204.8,30.033,211.25,18.15,213.333,17.067z M273.067,102.4v17.067h-51.2V102.4H273.067z M436.058,494.933H67.408
				c-1.314-6.207-4.006-12.04-7.877-17.067h384.404C440.064,482.894,437.372,488.726,436.058,494.933z M460.8,460.8H51.2V136.533
				h409.6V460.8z M494.933,452.267c-0.005,4.711-3.822,8.529-8.533,8.533h-8.533V136.533h8.533c4.711,0.005,8.529,3.822,8.533,8.533
				V452.267z"/>
			<path d="M162.133,273.067H204.8c14.132-0.015,25.585-11.468,25.6-25.6v-34.133c-0.015-14.132-11.468-25.585-25.6-25.6h-42.667
				c-14.132,0.015-25.585,11.468-25.6,25.6v34.133C136.549,261.599,148.001,273.051,162.133,273.067z M153.6,213.333
				c0.005-4.711,3.822-8.529,8.533-8.533H204.8c4.711,0.005,8.529,3.823,8.533,8.533v34.133c-0.005,4.711-3.823,8.529-8.533,8.533
				h-42.667c-4.711-0.005-8.529-3.822-8.533-8.533V213.333z"/>
			<path d="M366.933,358.4h-76.8c-4.713,0-8.533,3.82-8.533,8.533s3.82,8.533,8.533,8.533h76.8c4.713,0,8.533-3.82,8.533-8.533
				S371.646,358.4,366.933,358.4z"/>
			<path d="M366.933,392.533h-76.8c-4.713,0-8.533,3.821-8.533,8.533s3.82,8.533,8.533,8.533h76.8c4.713,0,8.533-3.82,8.533-8.533
				S371.646,392.533,366.933,392.533z"/>
			<path d="M366.933,324.267h-76.8c-4.713,0-8.533,3.821-8.533,8.533c0,4.713,3.82,8.533,8.533,8.533h76.8
				c4.713,0,8.533-3.821,8.533-8.533C375.467,328.087,371.646,324.267,366.933,324.267z"/>
			<path d="M85.333,409.6v25.6c-0.001,2.263,0.898,4.434,2.499,6.035c1.6,1.6,3.771,2.499,6.035,2.499h324.267
				c2.263,0.001,4.434-0.898,6.035-2.499c1.6-1.6,2.499-3.771,2.499-6.035v-25.6c9.421-0.011,17.056-7.646,17.067-17.067v-25.6
				c-0.011-9.421-7.645-17.056-17.067-17.067v-102.4c9.421-0.011,17.056-7.645,17.067-17.067v-25.6
				c-0.011-9.421-7.645-17.056-17.067-17.067v-25.6c0.001-2.263-0.898-4.434-2.499-6.035c-1.6-1.6-3.771-2.499-6.035-2.499H93.867
				c-2.263-0.001-4.434,0.898-6.035,2.499c-1.6,1.6-2.499,3.771-2.499,6.035v25.6c-9.421,0.011-17.056,7.646-17.067,17.067v25.6
				c0.011,9.421,7.645,17.056,17.067,17.067v102.4c-9.421,0.011-17.056,7.645-17.067,17.067v25.6
				C68.277,401.955,75.912,409.589,85.333,409.6z M426.675,392.533H409.6v-25.6h17.067L426.675,392.533z M426.667,204.8l0.009,25.6
				H409.6v-25.6H426.667z M264.533,170.667H409.6v17.067c-9.421,0.011-17.056,7.646-17.067,17.067v25.6
				c0.011,9.421,7.646,17.056,17.067,17.067v102.4c-9.421,0.011-17.056,7.645-17.067,17.067v25.6
				c0.011,9.421,7.646,17.056,17.067,17.067v17.067H264.533V170.667z M102.4,170.667h145.067v256H102.4V409.6
				c9.421-0.011,17.056-7.646,17.067-17.067v-25.6c-0.011-9.421-7.645-17.056-17.067-17.067v-102.4
				c9.421-0.011,17.056-7.645,17.067-17.067v-25.6c-0.011-9.421-7.645-17.056-17.067-17.067V170.667z M85.333,204.8H102.4
				l0.009,25.6H85.333V204.8z M85.333,366.933H102.4l0.009,25.6H85.333V366.933z"/>

	</symbol>
	
	<symbol id="parking" viewBox="0 -50 510 500">
	<path d="M486.542 -35.5557h-462.222c-4.90723 0 -8.88965 3.98242 -8.88965 8.88867c0 4.90723 3.98242 8.88965 8.88965 8.88965h38.6133c-3.04297 13.8096 -5.75 36.4922 -6.04492 50.6309v30.5068v44.7998c0 6.39941 7.68066 19.4131 16.2842 32.2842h-1.84863
c-11.4229 0 -20.6934 9.27051 -20.6934 20.6934v6.18652c0 11.4229 9.27051 20.6934 20.6934 20.6934h27.4492l37.9736 76.2314c5.89941 11.501 21.1777 20.835 34.1035 20.835h0.0292969h170.453h0.0273438c12.4492 0 27.4736 -8.82422 33.5371 -19.6973l38.8271 -77.2979
h25.7422c11.4229 0 20.6934 -9.27051 20.6934 -20.6934v-6.18652v0c0 -11.3838 -9.23926 -20.6543 -20.6221 -20.6934c8.24902 -12.8711 14.791 -25.3867 14.9326 -34.7734c0.426758 -25.2441 0 -50.6309 0 -73.0312c0 -5.90234 -2.41699 -36.0527 -4.2666 -50.6309h36.5518
c4.90625 0 8.88867 -3.98242 8.88867 -8.88867c0 -4.90723 -3.98242 -8.88965 -8.88867 -8.88965zM386.275 -17.7773h45.8672c1.20898 9.59961 4.2666 41.7422 4.33789 50.8438c0 22.3291 0.425781 47.5732 0 72.6045c0 3.69824 -3.34277 12.8711 -18.5605 35.1289
c-1.70703 2.48926 -2.77344 4.19531 -3.12891 4.76465c-0.527344 1.04297 -0.954102 2.83887 -0.954102 4.00781c0 4.90625 3.98145 8.88867 8.88867 8.88867c0.18457 0 0.485352 -0.0117188 0.669922 -0.0253906h15.8574c1.60938 0 2.91602 1.30664 2.91602 2.91602
v6.18652c0 1.60938 -1.30664 2.91504 -2.91602 2.91504h-31.2881h-0.0175781c-3.03027 0 -6.58984 2.19824 -7.94727 4.90723l-41.0312 81.7061c-3.24512 5.62109 -11.1455 10.208 -17.6357 10.2402h-170.098c-6.95801 -0.0263672 -15.1455 -5.0918 -18.2754 -11.3066
l-40.3906 -80.7822c-1.35742 -2.70801 -4.91797 -4.90625 -7.94727 -4.90625h-0.0175781h-32.9248v0c-1.60938 0 -2.91504 -1.30664 -2.91504 -2.91602v-6.18652c0 -1.60938 1.30566 -2.91602 2.91504 -2.91602h18.8447c4.90625 0 8.88867 -3.98145 8.88867 -8.88867
c0 -1.63574 -0.795898 -4.02441 -1.77734 -5.33301c-7.36914 -9.56641 -17.5957 -26.165 -22.8271 -37.0488c-0.355469 -13.0137 0 -28.4443 0 -43.5918v-30.8613c0.193359 -14.1641 2.99707 -36.8467 6.25781 -50.6318h44.7295
c2.51367 9.68555 5.47656 25.6143 6.61328 35.5557c0.293945 4.59277 4.26855 8.32031 8.87012 8.32031h0.0185547h230.4c7.82129 0 8.74609 -6.68457 9.59961 -13.1553c0.853516 -6.47168 3.27148 -25.1025 4.62207 -28.8711
c0.168945 -0.478516 0.359375 -1.27539 0.426758 -1.77832zM144.498 -17.7773h223.502c-1.20898 5.5459 -2.48926 14.2217 -3.98242 25.7422h-214.685c-1.1377 -8.3916 -3.19922 -18.6318 -5.04883 -25.9561zM301.796 39.1113h-90.3115
c-4.90625 0 -8.88867 3.98242 -8.88867 8.88867s3.98242 8.88867 8.88867 8.88867h90.0977c4.90723 0 8.88867 -3.98242 8.88867 -8.88867s-3.98145 -8.88867 -8.88867 -8.88867h0.213867zM331.378 74.667v0c-4.90723 0 -8.88965 3.98145 -8.88965 8.88867
c0 1.00195 0.319336 2.5625 0.711914 3.48438l13.2979 31.502c0.615234 1.4541 2.20801 3.30176 3.55566 4.125c1.36426 1.02734 3.84863 2.01465 5.5459 2.2041c0.711914 0 46.2227 6.75586 48.9961 6.75586c0.710938 0 3.76855 -0.426758 3.76855 -0.426758
c11.1533 -2.19141 20.2051 -13.1953 20.2051 -24.5615c0 -0.188477 -0.00390625 -0.495117 -0.00976562 -0.683594c0 -0.0185547 0.000976562 -0.0488281 0.000976562 -0.0683594c0 -13.0615 -10.5459 -24.7549 -23.5381 -26.0996l-62.8623 -5.0498zM351.218 107.733
l-5.97363 -14.2227l48.5693 3.91113h0.710938c2.63086 0 6.18652 4.76465 6.18652 8.3916c0.0234375 0.210938 0.0419922 0.554688 0.0419922 0.766602c0 3.0918 -2.44043 6.18945 -5.44629 6.91309h-0.853516c-5.19043 -0.853516 -31.7861 -4.62207 -43.4482 -6.3291z
M180.551 74.667h-0.710938l-62.8623 5.04883c-12.9922 1.34473 -23.5381 13.0381 -23.5381 26.1006c0 0.0185547 0.000976562 0.0488281 0.000976562 0.0683594c-0.00585938 0.188477 -0.00976562 0.494141 -0.00976562 0.682617c0 11.3662 9.05176 22.3701 20.2051 24.5615
s3.05762 0.426758 3.76855 0.426758c2.77344 0 48.2139 -6.61328 48.7109 -6.68457c1.6709 -0.147461 4.12305 -1.07129 5.47559 -2.0625c1.43848 -0.873047 3.19043 -2.81641 3.91113 -4.33789l13.2979 -31.502c0.392578 -0.921875 0.711914 -2.48242 0.711914 -3.48438
c0 -4.90625 -3.98242 -8.88867 -8.88965 -8.88867v0zM117.476 113.777h-0.853516c-2.96777 -0.746094 -5.37695 -3.83594 -5.37695 -6.89551c0 -0.217773 0.0195312 -0.568359 0.0439453 -0.78418c0 -3.62695 3.55566 -8.39062 6.18652 -8.39062h0.710938l48.5693 -3.91113
l-5.97363 14.2217c-12.6582 0.924805 -38.7559 4.62207 -43.6621 5.19141zM390.4 141.014h-265.885h-0.0175781c-4.90625 0 -8.88867 3.98145 -8.88867 8.88867c0 1.16016 0.421875 2.94434 0.941406 3.98242l49.7783 98.7734
c1.35742 2.70801 4.91699 4.90625 7.94629 4.90625h0.0175781h163.556h0.0195312c2.96875 0 6.49609 -2.13477 7.87402 -4.76465l51.9824 -98.7734c0.55957 -1.06934 1.01465 -2.91699 1.01465 -4.12402c0 -4.90723 -3.98242 -8.88867 -8.88867 -8.88867h-0.0195312
h0.569336zM139.449 158.791h235.804l-42.666 80.9961h-152.533zM487.894 285.725c-1.13965 0.00195312 -2.8916 0.416016 -3.91113 0.923828l-227.982 110.578l-227.556 -111.146c-1.24219 -0.835938 -3.46484 -1.51465 -4.96191 -1.51465
c-4.90723 0 -8.88965 3.98242 -8.88965 8.88965c0 3.83398 3.01953 7.69824 6.74023 8.625l230.756 112.995c1.02148 0.500977 2.77344 0.907227 3.91113 0.907227s2.88965 -0.40625 3.91113 -0.907227l230.756 -112.995
c2.72754 -1.35156 4.94141 -4.91992 4.94141 -7.96484c0 -4.88672 -3.96582 -8.86914 -8.85254 -8.88867z" />
	</symbol>
	
	<symbol id="r-o" viewBox="0 0 1000 1000">
	<g><g transform="translate(0.000000,511.000000) scale(0.100000,-0.100000)"><path d="M1688.5,4995.8c-46.8-10.2-111.9-32.6-144.4-48.8c-89.5-46.8-219.7-205.5-256.3-311.3c-44.8-134.3-42.7-647,8.1-1247.1c130.2-1593,258.4-3883.8,295-5299.8c6.1-246.2,16.3-577.8,22.4-738.5l12.2-288.9h-136.3h-134.3l4.1,65.1c4.1,36.6,4.1,116,2,175l-4.1,105.8h-81.4h-81.4v-254.3v-254.3h213.6h213.6v-264.5v-264.5h-213.6h-213.6v-254.3V-4139h81.4c91.5,0,89.5-6.1,81.4,209.6l-4.1,136.3h134.3h134.3V-3966V-4139l128.2-128.2c234-234,563.5-417.1,883-490.3c130.2-28.5,386.5-32.5,2376.2-32.5h2231.8l181.1,61c331.6,109.9,590,266.5,783.3,470l103.8,109.9l12.2,1037.6c20.3,1458.7,67.1,2614.3,156.7,3875.7c73.2,996.9,195.3,2209.4,286.8,2823.8c57,388.6,54.9,913.5-4,1070.1c-44.8,124.1-144.5,236-268.6,303.1l-85.4,44.8l-3316.2,4.1C3267.3,5010,1735.3,5003.9,1688.5,4995.8z M8477.5,4786.2c134.3-89.5,152.6-146.5,158.7-533c6.1-282.8-2-415-44.8-722.2c-248.2-1814.7-398.7-4132-433.3-6618.1l-12.2-1013.2l-126.2-116c-134.3-122.1-413-282.8-612.3-349.9c-113.9-38.7-179.1-40.7-2429.2-40.7H2667.1l-142.4,48.8c-256.3,85.4-429.3,191.2-624.6,374.3l-116,111.9v561.5c0,1627.5-124.1,4337.5-290.9,6390.2c-46.8,579.8-65.1,931.8-65.1,1261.4c0,441.5,2,459.8,46.8,533c24.4,40.7,75.3,93.6,111.9,116c65.1,42.7,67.1,42.7,3444.4,42.7h3379.2L8477.5,4786.2z"/><path d="M1601,4025.3c0-10.2,18.3-116,40.7-240.1c61-329.6,172.9-1119,231.9-1617.4c148.5-1265.4,215.7-2311.2,215.7-3379.3v-622.5l93.6-87.5c50.9-46.8,158.7-116,238-152.6c264.5-124.1,352-132.2,1395.6-132.2h935.9l6.1-146.5l6.1-148.5h264.5h264.5l6.1,146.5l6.1,146.5l939.9,6.1c889.1,8.1,948.1,10.2,1098.6,52.9c177,48.8,382.5,142.4,467.9,211.6l57,46.8l18.3,478.1c81.4,2107.7,258.4,3928.5,490.3,5086.1c32.6,162.8,59,311.3,59,331.6c0,32.6-177,34.6-3417.9,34.6C3139.1,4039.6,1601,4033.5,1601,4025.3z M8247.6,3842.2c-18.3-30.5-113.9-585.9-175-1013.2C7916,1734.5,7793.9,312.4,7745.1-1026.3c-12.2-329.6-28.5-644.9-36.6-701.9c-14.3-99.7-16.3-101.7-142.4-164.8c-207.5-103.7-347.9-130.2-701.9-130.2h-313.3l-14.3,240.1c-6.1,130.2-48.8,1131.2-93.6,2221.6c-44.7,1090.5-85.4,2087.4-93.6,2213.5l-12.2,227.9H5016.9H3696.5V2825c2-128.2-185.1-4681.3-195.3-4760.6l-10.2-87.5h-366.2c-337.7,0-378.4,4.1-522.9,52.9c-85.4,28.5-199.4,83.4-252.3,122.1l-97.7,69.2v618.5c0,1361.1-132.2,2937.8-376.4,4528.7c-38.6,252.3-71.2,465.9-71.2,474c0,8.1,1452.6,14.2,3226.7,14.2C6805.2,3856.5,8251.7,3850.4,8247.6,3842.2z M6186.7,2631.7c6.1-48.8,46.8-1021.3,93.6-2162.6c44.8-1141.3,87.5-2168.7,93.6-2282.7l14.2-209.6h-486.2h-486.2l6.1,352c6.1,388.6-10.2,482.2-99.7,547.3c-28.5,22.4-89.5,44.7-136.3,50.9l-85.4,12.2v118v118l-329.6,103.8c-183.1,57-384.5,122.1-449.6,142.4c-87.5,28.5-120,32.6-126.1,14.2c-6.1-14.2-18.3-48.8-28.5-79.4c-20.3-52.9-18.3-54.9,85.4-85.4c59-18.3,234-73.2,390.6-122.1c278.7-87.5,284.8-89.5,290.9-148.5c6.1-57,0-63.1-73.2-75.3c-105.8-16.3-181.1-79.4-207.5-170.9c-14.2-44.8-20.3-213.6-16.3-427.2l6.1-350h-490.3h-490.3l8.1,138.4c6.1,107.8,189.2,4538.9,189.2,4587.7c0,8.1,520.8,14.2,1157.6,14.2h1159.7L6186.7,2631.7z M5242.7-1636.6v-386.6h-213.6h-213.6v386.6v386.6h213.6h213.6V-1636.6z M5120.7-2267.3c0-59-4.1-61-91.6-61s-91.6,2.1-91.6,61c0,59,4.1,61,91.6,61S5120.7-2208.3,5120.7-2267.3z"/></g></g>
	</symbol>
	
	<symbol id="chimney" viewBox="0 0 1024 1024">
		<path d="M642.995 268.437H380.883L170.464 465.598h682.95L642.995 268.437z m0 0M228.603 664.22s-88.303 57.652-1.338 122.967c85.262 63.977 1.338 128.441 1.338 128.441s130.265-54.247 68.842-125.643c-32.475-37.827-97.425-59.842-68.842-125.765z m0 0M490.228 664.22s-88.303 57.652-1.338 122.967c85.263 63.977 1.338 128.441 1.338 128.441s130.266-54.247 68.843-125.643c-32.475-37.827-97.426-59.842-68.843-125.765z m0 0M751.732 664.22s-88.303 57.652-1.338 122.967c85.262 63.977 1.338 128.441 1.338 128.441s130.265-54.247 68.842-125.643c-32.475-37.827-97.425-59.842-68.842-125.765z m0 0M961.908 495.64H61.97c-27.61 0-49.99 22.38-49.99 49.99v31.624c0 27.61 22.38 49.99 49.99 49.99h900.06c27.61 0 49.99-22.38 49.99-49.99v-31.623c-0.122-27.61-22.502-49.99-50.112-49.99zM738.11 583.823c-12.285 0-22.38-9.973-22.38-22.38a22.321 22.321 0 0 1 22.38-22.38 22.321 22.321 0 0 1 22.38 22.38c0 12.285-9.974 22.38-22.38 22.38z m88.303 0c-12.285 0-22.38-9.973-22.38-22.38a22.321 22.321 0 0 1 22.38-22.38c12.284 0 22.38 9.974 22.38 22.38 0 12.285-10.096 22.38-22.38 22.38z m88.181 0a22.321 22.321 0 0 1-22.38-22.38 22.321 22.321 0 0 1 22.38-22.38c12.285 0 22.38 9.974 22.38 22.38 0 12.285-9.974 22.38-22.38 22.38z m0 0M642.022 238.88V100.954c0-34.422-15.933-50.355-50.111-50.355H431.968c-34.178 0-50.112 15.933-50.112 50.355V238.88h260.166z" />
	</symbol>
</svg>