<svg xmlns="http://www.w3.org/2000/svg" xmlns:xlink="http://www.w3.org/1999/xlink" preserveAspectRatio="xMidYMid" width="54" height="53" viewBox="0 0 54 53">
  <defs>
    <style>
      .cls-1 {
        fill: #e1e1e4;
        fill-rule: evenodd;
      }
    </style>
  </defs>
  <path d="M54.002,53.000 L-0.003,53.000 L9.667,32.684 L16.300,32.684 L13.591,28.770 C8.531,22.021 9.266,10.882 15.184,4.962 C18.382,1.762 22.634,0.000 27.156,0.000 C31.679,0.000 35.931,1.762 39.128,4.962 C45.046,10.882 45.782,22.020 40.701,28.796 L38.010,32.683 L44.333,32.683 L54.002,53.000 ZM39.269,27.763 C43.880,21.613 43.222,11.553 37.881,6.210 C35.016,3.344 31.208,1.766 27.157,1.766 C23.106,1.766 19.297,3.344 16.433,6.210 C11.092,11.553 10.434,21.612 15.024,27.736 L18.448,32.683 L27.156,45.264 L39.269,27.763 ZM36.788,34.450 L27.156,48.369 L17.523,34.450 L10.783,34.450 L2.794,51.233 L51.205,51.233 L43.217,34.450 L36.788,34.450 ZM21.132,16.783 C21.132,13.374 23.905,10.599 27.312,10.599 C30.719,10.599 33.493,13.374 33.493,16.783 C33.493,20.192 30.719,22.966 27.312,22.966 C23.904,22.966 21.132,20.192 21.132,16.783 ZM27.312,21.199 C29.746,21.199 31.727,19.218 31.727,16.783 C31.727,14.347 29.746,12.366 27.312,12.366 C24.878,12.366 22.898,14.347 22.898,16.783 C22.898,19.218 24.878,21.199 27.312,21.199 Z" class="cls-1"/>
</svg>
