<?xml version="1.0" standalone="no"?>
<!DOCTYPE svg PUBLIC "-//W3C//DTD SVG 20010904//EN"
 "http://www.w3.org/TR/2001/REC-SVG-20010904/DTD/svg10.dtd">
<svg version="1.0" xmlns="http://www.w3.org/2000/svg"
 width="180.000000pt" height="128.000000pt" viewBox="0 0 180.000000 128.000000"
 preserveAspectRatio="xMidYMid meet">

<g transform="translate(0.000000,128.000000) scale(0.100000,-0.100000)"
fill="#000000" stroke="none">
<path d="M319 1266 c-152 -42 -276 -173 -308 -326 -9 -39 -11 -185 -9 -495 l3
-440 710 -3 c774 -2 759 -3 868 56 59 32 137 114 170 178 44 88 48 138 45 604
l-3 435 -715 2 c-553 1 -725 -2 -761 -11z m365 -353 c87 -24 165 -102 189
-189 9 -33 17 -84 17 -114 0 -30 -8 -81 -17 -114 -14 -50 -27 -71 -72 -117
-46 -45 -67 -58 -117 -72 -77 -22 -151 -22 -228 0 -50 14 -71 27 -117 72 -45
46 -58 67 -72 117 -22 77 -22 151 0 228 23 83 102 165 183 188 73 22 160 22
234 1z m722 -20 c60 -32 78 -65 79 -145 0 -74 -16 -105 -73 -144 l-31 -21 24
-13 c30 -16 60 -61 119 -178 l46 -92 -84 0 -85 0 -52 100 c-55 109 -79 130
-144 130 l-35 0 0 -115 0 -115 -80 0 -80 0 0 311 0 311 178 -4 c158 -3 181 -6
218 -25z"/>
<path d="M504 806 c-114 -51 -127 -301 -20 -380 39 -29 133 -29 172 0 49 36
69 89 69 184 0 94 -20 148 -67 183 -34 25 -113 32 -154 13z"/>
<path d="M1170 725 l0 -85 55 0 c70 0 105 29 105 85 0 56 -35 85 -105 85 l-55
0 0 -85z"/>
</g>
</svg>
